# File created by Blade
# Date/Time:  Tue Jan 27 17:01:38 2015
# Frame Rate: 120.000 fps
#------------------------------------------------------
:FULLY-SPECIFIED
:DEGREES
3382
root -1.723452 36.751333 6.786327 9.409851 26.848362 2.502790
Spine -11.971708 19.445518 -11.888148
Head 8.162791 0.090358 3.879758
LeftShoulder -16.528447 -7.866158 0.751168
LeftArm -24.619884 -52.440646 -40.010137
LeftForeArm -60.110511 -0.000000 104.896745
LeftHand -10.912404 -0.000000 54.869814
LeftHandThumb1 -26.253704 0.000000 33.147579
RightShoulder -3.214768 -24.601254 -5.411736
RightArm 22.206023 -33.212029 59.276462
RightForeArm -148.385744 0.000000 35.212172
RightHand -1.689857 0.000000 -3.320445
RightHandThumb1 -24.326973 -0.000000 -32.862282
LeftUpLeg -8.570239 -1.589452 6.086417
LeftLeg 6.377334 -0.000000 -0.000000
LeftFoot -10.020310 -6.985965 -21.497000
LeftToeBase 14.989808 -0.000000 -0.000000
RightUpLeg -3.438043 -20.918484 0.649712
RightLeg 11.441139 -0.000000 -0.000000
RightFoot -24.446937 -15.627981 19.456041
RightToeBase 10.828338 -0.000000 -0.000000
3383
root -1.726606 36.750337 6.789604 9.400473 27.006407 2.524434
Spine -11.973178 19.482102 -11.928122
Head 8.205809 -0.002532 3.892089
LeftShoulder -16.482625 -7.865649 0.687588
LeftArm -24.477851 -52.448391 -40.194032
LeftForeArm -59.916570 0.000000 104.937638
LeftHand -11.012698 -0.000000 55.173048
LeftHandThumb1 -26.253704 0.000000 33.147579
RightShoulder -3.241137 -24.593248 -5.389848
RightArm 22.176472 -33.217934 59.270990
RightForeArm -148.383094 -0.000000 35.189496
RightHand -1.654729 -0.000000 -3.242982
RightHandThumb1 -24.326973 -0.000000 -32.862282
LeftUpLeg -8.581903 -1.693733 6.095266
LeftLeg 6.379931 -0.000000 -0.000000
LeftFoot -9.989595 -7.035939 -21.511050
LeftToeBase 15.010374 -0.000000 -0.000000
RightUpLeg -3.407716 -20.988133 0.650592
RightLeg 11.459229 -0.000000 -0.000000
RightFoot -24.499685 -15.674665 19.512160
RightToeBase 10.817278 -0.000000 -0.000000
3384
root -1.729596 36.748822 6.794556 9.394177 27.154185 2.549040
Spine -11.964408 19.485453 -11.962391
Head 8.213326 -0.041763 3.865835
LeftShoulder -16.474104 -7.914966 0.655459
LeftArm -24.461352 -52.437694 -40.283150
LeftForeArm -59.859527 -0.000000 104.960303
LeftHand -11.078930 -0.000000 55.288025
LeftHandThumb1 -26.253704 0.000000 33.147579
RightShoulder -3.239983 -24.584703 -5.406485
RightArm 22.182539 -33.223702 59.280152
RightForeArm -148.369210 0.000000 35.148077
RightHand -1.665550 0.000000 -3.242474
RightHandThumb1 -24.326973 -0.000000 -32.862282
LeftUpLeg -8.590243 -1.779793 6.099137
LeftLeg 6.381781 -0.000000 -0.000000
LeftFoot -9.959614 -7.086906 -21.522314
LeftToeBase 15.036037 -0.000000 -0.000000
RightUpLeg -3.378340 -21.055497 0.649542
RightLeg 11.478153 -0.000000 -0.000000
RightFoot -24.539897 -15.738258 19.534648
RightToeBase 10.772627 -0.000000 -0.000000
3385
root -1.733426 36.747874 6.800010 9.374719 27.293339 2.568434
Spine -11.966023 19.508736 -12.001911
Head 8.264302 -0.094484 3.862799
LeftShoulder -16.449812 -7.926524 0.616337
LeftArm -24.351857 -52.450392 -40.453254
LeftForeArm -59.769723 -0.000000 105.018609
LeftHand -10.938170 -0.000000 55.172847
LeftHandThumb1 -26.253704 0.000000 33.147579
RightShoulder -3.228129 -24.593624 -5.390757
RightArm 22.158455 -33.168351 59.307698
RightForeArm -148.324743 -0.000000 35.132801
RightHand -1.594049 0.000000 -3.192427
RightHandThumb1 -24.326973 -0.000000 -32.862282
LeftUpLeg -8.580070 -1.861596 6.108249
LeftLeg 6.368012 -0.000000 -0.000000
LeftFoot -9.911135 -7.136939 -21.524031
LeftToeBase 14.999620 -0.000000 -0.000000
RightUpLeg -3.331828 -21.102969 0.649095
RightLeg 11.484965 -0.000000 -0.000000
RightFoot -24.589258 -15.803800 19.565297
RightToeBase 10.799215 -0.000000 -0.000000
3386
root -1.736000 36.746736 6.807387 9.351766 27.431838 2.592889
Spine -11.955160 19.516535 -12.040508
Head 8.313567 -0.140694 3.878798
LeftShoulder -16.447852 -7.960917 0.601152
LeftArm -24.270538 -52.479942 -40.584617
LeftForeArm -59.683069 -0.000000 105.044280
LeftHand -10.912442 -0.000000 55.318894
LeftHandThumb1 -26.253704 0.000000 33.147579
RightShoulder -3.202515 -24.563487 -5.410365
RightArm 22.112337 -33.158104 59.357742
RightForeArm -148.354166 -0.000000 35.104159
RightHand -1.641589 -0.000000 -3.173758
RightHandThumb1 -24.326973 -0.000000 -32.862282
LeftUpLeg -8.559437 -1.950625 6.112467
LeftLeg 6.354632 -0.000000 -0.000000
LeftFoot -9.890696 -7.169717 -21.524955
LeftToeBase 15.024553 -0.000000 -0.000000
RightUpLeg -3.277482 -21.181349 0.640650
RightLeg 11.493828 -0.000000 -0.000000
RightFoot -24.629456 -15.833558 19.615261
RightToeBase 10.778266 -0.000000 -0.000000
3387
root -1.738123 36.745246 6.814385 9.321373 27.559585 2.636915
Spine -11.919403 19.537921 -12.097393
Head 8.344708 -0.170616 3.906062
LeftShoulder -16.407852 -7.979430 0.581581
LeftArm -24.232760 -52.470537 -40.675710
LeftForeArm -59.585122 -0.000000 105.122899
LeftHand -10.668118 -0.000000 55.542082
LeftHandThumb1 -26.253704 0.000000 33.147579
RightShoulder -3.209116 -24.549988 -5.408378
RightArm 22.121092 -33.148355 59.360787
RightForeArm -148.400712 -0.000000 35.094421
RightHand -1.632275 0.000000 -3.138764
RightHandThumb1 -24.326973 -0.000000 -32.862282
LeftUpLeg -8.521301 -2.028629 6.094894
LeftLeg 6.342111 -0.000000 -0.000000
LeftFoot -9.841129 -7.209886 -21.511063
LeftToeBase 14.985277 -0.000000 -0.000000
RightUpLeg -3.202085 -21.256318 0.606349
RightLeg 11.496214 -0.000000 -0.000000
RightFoot -24.683840 -15.874898 19.631731
RightToeBase 10.815858 -0.000000 -0.000000
3388
root -1.741973 36.744096 6.820306 9.304574 27.653571 2.652411
Spine -11.930457 19.581704 -12.142638
Head 8.403260 -0.183613 3.917388
LeftShoulder -16.388838 -7.979287 0.574103
LeftArm -24.164649 -52.517965 -40.805393
LeftForeArm -59.441387 -0.000000 105.182632
LeftHand -10.856808 -0.000000 55.320521
LeftHandThumb1 -26.253704 0.000000 33.147579
RightShoulder -3.193157 -24.525143 -5.415364
RightArm 22.098108 -33.135157 59.382073
RightForeArm -148.450788 -0.000000 35.101755
RightHand -1.596141 -0.000000 -3.146585
RightHandThumb1 -24.326973 -0.000000 -32.862282
LeftUpLeg -8.506433 -2.054368 6.097918
LeftLeg 6.331856 -0.000000 -0.000000
LeftFoot -9.814490 -7.264642 -21.524619
LeftToeBase 15.020401 -0.000000 -0.000000
RightUpLeg -3.165296 -21.291022 0.605817
RightLeg 11.504872 -0.000000 -0.000000
RightFoot -24.714369 -15.932353 19.637491
RightToeBase 10.808761 -0.000000 -0.000000
3389
root -1.746513 36.742312 6.825885 9.305187 27.777780 2.676368
Spine -11.929240 19.574658 -12.199031
Head 8.385492 -0.179457 4.029396
LeftShoulder -16.412108 -8.037069 0.603108
LeftArm -24.119791 -52.479594 -40.904388
LeftForeArm -59.283969 -0.000000 105.245808
LeftHand -10.809916 -0.000000 55.487950
LeftHandThumb1 -26.253704 0.000000 33.147579
RightShoulder -3.205677 -24.488715 -5.405914
RightArm 22.113696 -33.169916 59.344151
RightForeArm -148.368981 -0.000000 35.132934
RightHand -1.590323 0.000000 -3.157669
RightHandThumb1 -24.326973 -0.000000 -32.862282
LeftUpLeg -8.513244 -2.118669 6.102814
LeftLeg 6.323490 -0.000000 -0.000000
LeftFoot -9.776690 -7.316417 -21.521279
LeftToeBase 14.995725 -0.000000 -0.000000
RightUpLeg -3.139147 -21.355744 0.607707
RightLeg 11.506221 -0.000000 -0.000000
RightFoot -24.756150 -15.974140 19.661775
RightToeBase 10.791254 -0.000000 -0.000000
3390
root -1.751235 36.741057 6.829154 9.304701 27.860815 2.677929
Spine -11.953361 19.601924 -12.228398
Head 8.408160 -0.187126 4.042027
LeftShoulder -16.420621 -8.056450 0.597721
LeftArm -24.040689 -52.477006 -41.003542
LeftForeArm -59.135102 0.000000 105.311255
LeftHand -10.638053 -0.000000 55.892734
LeftHandThumb1 -26.253704 0.000000 33.147579
RightShoulder -3.188756 -24.474259 -5.420307
RightArm 22.117726 -33.172670 59.327806
RightForeArm -148.325345 -0.000000 35.159316
RightHand -1.660369 -0.000000 -3.127396
RightHandThumb1 -24.326973 -0.000000 -32.862282
LeftUpLeg -8.523162 -2.156777 6.119386
LeftLeg 6.315364 -0.000000 -0.000000
LeftFoot -9.758552 -7.352782 -21.536609
LeftToeBase 15.027418 -0.000000 -0.000000
RightUpLeg -3.137817 -21.376794 0.626378
RightLeg 11.528431 -0.000000 -0.000000
RightFoot -24.783973 -16.025523 19.668396
RightToeBase 10.772796 -0.000000 -0.000000
3391
root -1.755791 36.740205 6.833350 9.308371 27.952109 2.685914
Spine -11.974642 19.618817 -12.262685
Head 8.418576 -0.194650 4.048429
LeftShoulder -16.441815 -8.068895 0.594214
LeftArm -23.950253 -52.466460 -41.096508
LeftForeArm -59.019175 -0.000000 105.352795
LeftHand -10.572420 -0.000000 55.932113
LeftHandThumb1 -26.253704 0.000000 33.147579
RightShoulder -3.191653 -24.469094 -5.426831
RightArm 22.155005 -33.169707 59.298293
RightForeArm -148.331755 0.000000 35.189576
RightHand -1.629477 -0.000000 -3.173977
RightHandThumb1 -24.326973 -0.000000 -32.862282
LeftUpLeg -8.536920 -2.184154 6.130893
LeftLeg 6.309026 -0.000000 -0.000000
LeftFoot -9.728189 -7.404397 -21.530069
LeftToeBase 15.025656 -0.000000 -0.000000
RightUpLeg -3.130708 -21.409200 0.640286
RightLeg 11.540201 -0.000000 -0.000000
RightFoot -24.830441 -16.044655 19.729936
RightToeBase 10.803458 -0.000000 -0.000000
3392
root -1.760547 36.739694 6.837381 9.308754 28.044603 2.695908
Spine -12.007062 19.637843 -12.297810
Head 8.467856 -0.201594 4.082073
LeftShoulder -16.421500 -8.049928 0.589947
LeftArm -23.911197 -52.531315 -41.141735
LeftForeArm -59.013584 -0.000000 105.367714
LeftHand -10.937970 -0.000000 55.568380
LeftHandThumb1 -26.253704 0.000000 33.147579
RightShoulder -3.169565 -24.480890 -5.442149
RightArm 22.181980 -33.138171 59.286451
RightForeArm -148.372536 -0.000000 35.212661
RightHand -1.661050 -0.000000 -3.168258
RightHandThumb1 -24.326973 -0.000000 -32.862282
LeftUpLeg -8.550502 -2.228870 6.141661
LeftLeg 6.312544 -0.000000 -0.000000
LeftFoot -9.704368 -7.441025 -21.542289
LeftToeBase 15.034398 -0.000000 -0.000000
RightUpLeg -3.119299 -21.453898 0.652376
RightLeg 11.547719 -0.000000 -0.000000
RightFoot -24.847932 -16.093166 19.735254
RightToeBase 10.775640 -0.000000 -0.000000
3393
root -1.765389 36.739157 6.841185 9.312128 28.154213 2.708069
Spine -12.019829 19.647559 -12.331072
Head 8.498635 -0.207381 4.078981
LeftShoulder -16.390031 -8.056169 0.576266
LeftArm -23.877840 -52.532706 -41.149538
LeftForeArm -59.030101 -0.000000 105.413877
LeftHand -10.993427 -0.000000 55.638472
LeftHandThumb1 -26.253704 0.000000 33.147579
RightShoulder -3.175748 -24.474105 -5.450599
RightArm 22.203363 -33.118124 59.282254
RightForeArm -148.364241 0.000000 35.250083
RightHand -1.626276 -0.000000 -3.123841
RightHandThumb1 -24.326973 -0.000000 -32.862282
LeftUpLeg -8.569949 -2.305020 6.155607
LeftLeg 6.313835 -0.000000 -0.000000
LeftFoot -9.675289 -7.461625 -21.543208
LeftToeBase 15.028258 -0.000000 -0.000000
RightUpLeg -3.108957 -21.506839 0.663731
RightLeg 11.558539 -0.000000 -0.000000
RightFoot -24.877023 -16.109834 19.766890
RightToeBase 10.776381 -0.000000 -0.000000
